<?xml version="1.0" encoding="UTF-8" standalone="no"?>
<!DOCTYPE svg PUBLIC "-//W3C//DTD SVG 1.1//EN" "http://www.w3.org/Graphics/SVG/1.1/DTD/svg11.dtd">
<svg width="100%" height="100%" viewBox="0 0 24 22" version="1.1" xmlns="http://www.w3.org/2000/svg" xmlns:xlink="http://www.w3.org/1999/xlink" xml:space="preserve" xmlns:serif="http://www.serif.com/" style="fill-rule:evenodd;clip-rule:evenodd;">
    <path d="M11.192,3.939L12.011,5.061L12.815,3.929C13.986,2.281 15.388,1.55 17.3,1.55C20.375,1.55 23,4.276 23,7.8C23,10.955 20.785,12.969 18.087,15.209C17.813,15.409 17.536,15.657 17.304,15.865C17.211,15.949 17.125,16.026 17.049,16.091L17.04,16.099L16.031,17.007L16.023,17.014C14.772,18.165 13.931,18.932 13.342,19.447C12.738,19.975 12.449,20.194 12.286,20.293C12.225,20.329 12.159,20.359 12.097,20.378C12.037,20.397 12.004,20.4 12,20.4C12,20.4 12,20.4 12,20.4C12,20.4 12,20.4 12,20.4C11.996,20.4 11.963,20.397 11.903,20.378C11.842,20.359 11.775,20.329 11.714,20.293C11.554,20.196 11.223,19.935 10.593,19.388C10.155,19.008 9.607,18.522 8.921,17.913C8.656,17.678 8.371,17.424 8.063,17.152L8.063,17.152L8.056,17.145L6.932,16.168C6.607,15.846 6.243,15.534 5.947,15.288C3.273,12.973 1,10.916 1,7.8C1,4.272 3.626,1.559 6.686,1.6L6.686,1.6L6.7,1.6C8.615,1.6 10.021,2.335 11.192,3.939Z" style="fill:white;fill-rule:nonzero;stroke:black;stroke-width:2px;"/>
</svg>
